HIERARCHY
ROOT Hips
{
  OFFSET -32.5998 29.0326 120.673
  CHANNELS 6 Xposition Yposition Zposition Zrotation Xrotation Yrotation
  JOINT LeftUpLeg
  {
    OFFSET 8.64259 1.95398 -2.38835
    CHANNELS 3 Zrotation Xrotation Yrotation
    JOINT LeftLeg
    {
      OFFSET 43.7702 0 0
      CHANNELS 3 Zrotation Xrotation Yrotation
      JOINT LeftFoot
      {
        OFFSET 40.6238 0 0
        CHANNELS 3 Zrotation Xrotation Yrotation
        JOINT LeftToeBase
        {
          OFFSET 12.7242 0 0
          CHANNELS 3 Zrotation Xrotation Yrotation
          End Site
          {
            OFFSET 0 0 0
          }
        }
      }
    }
  }
  JOINT RightUpLeg
  {
    OFFSET -8.2249 1.95398 -2.59336
    CHANNELS 3 Zrotation Xrotation Yrotation
    JOINT RightLeg
    {
      OFFSET 43.5653 0 0
      CHANNELS 3 Zrotation Xrotation Yrotation
      JOINT RightFoot
      {
        OFFSET 40.6238 0 0
        CHANNELS 3 Zrotation Xrotation Yrotation
        JOINT RightToeBase
        {
          OFFSET 12.7242 0 0
          CHANNELS 3 Zrotation Xrotation Yrotation
          End Site
          {
            OFFSET 0 0 0
          }
        }
      }
    }
  }
  JOINT Spine
  {
    OFFSET 0.165834 0.87714 6.61349
    CHANNELS 3 Zrotation Xrotation Yrotation
    JOINT Spine1
    {
      OFFSET 7.38963 1.71661e-005 0
      CHANNELS 3 Zrotation Xrotation Yrotation
      JOINT Spine2
      {
        OFFSET 11.9445 1.14441e-005 0
        CHANNELS 3 Zrotation Xrotation Yrotation
        JOINT Spine3
        {
          OFFSET 14.7254 4.19617e-005 0
          CHANNELS 3 Zrotation Xrotation Yrotation
          JOINT Spine4
          {
            OFFSET 10.9679 0 0
            CHANNELS 3 Zrotation Xrotation Yrotation
            JOINT RightShoulder
            {
              OFFSET 2.46616 -1.6653 3.69651
              CHANNELS 3 Zrotation Xrotation Yrotation
              JOINT RightArm
              {
                OFFSET 13.0012 0 0
                CHANNELS 3 Zrotation Xrotation Yrotation
                JOINT RightForeArm
                {
                  OFFSET 28.7848 1.62311e-005 0
                  CHANNELS 3 Zrotation Xrotation Yrotation
                  JOINT RightHand
                  {
                    OFFSET 26.5688 1.62095e-005 0
                    CHANNELS 3 Zrotation Xrotation Yrotation
                    End Site
                    {
                      OFFSET 0 0 0
                    }
                  }
                }
              }
            }
            JOINT LeftShoulder
            {
              OFFSET 2.38034 -1.29275 -3.7523
              CHANNELS 3 Zrotation Xrotation Yrotation
              JOINT LeftArm
              {
                OFFSET 16.3182 6.07031e-005 0
                CHANNELS 3 Zrotation Xrotation Yrotation
                JOINT LeftForeArm
                {
                  OFFSET 27.0901 0 0
                  CHANNELS 3 Zrotation Xrotation Yrotation
                  JOINT LeftHand
                  {
                    OFFSET 24.5451 1.51738e-005 0
                    CHANNELS 3 Zrotation Xrotation Yrotation
                    End Site
                    {
                      OFFSET 0 0 0
                    }
                  }
                }
              }
            }
            JOINT Neck
            {
              OFFSET 5.0226 -0.0266342 0
              CHANNELS 3 Zrotation Xrotation Yrotation
              JOINT Head
              {
                OFFSET 6.69364 2.86102e-005 0
                CHANNELS 3 Zrotation Xrotation Yrotation
                End Site
                {
                  OFFSET 0 0 0
                }
              }
            }
          }
        }
      }
    }
  }
}
MOTION
Frames:	15
Frame Time:	0.0416667
148.519 14.6396 122.728 -7.71341 -1.94985 -90.8068 -170.146 1.61944 95.3963 -24.6361 10.1389 -1.93535 59.3509 -1.35112 -1.93645 53.2847 0.614416 47.9399 167.793 -1.93881 82.9094 -25.0686 -17.3641 0.935302 71.2742 -6.83755 -0.0898431 36.671 -4.22595 4.53189 -0.232395 6.28766 -90.0313 14.2987 -0.475644 0.00340058 2.62783 -0.475043 0.0243195 -19.908 -0.454674 -0.13969 0.10467 -0.454683 -0.139723 97.9172 5.88592 -103.214 13.1599 82.6432 -39.7266 -18.5937 -12.2177 -122.361 -4.13414 -0.697889 16.5006 -82.4157 -6.22482 82.7852 -36.9311 -73.2141 -73.4647 23.3613 3.24648 -117.439 -5.60483 -0.18436 -1.04516 38.837 0.188001 -7.88101 -16.8041 2.46873 12.6339 
148.448 13.9225 122.917 -9.74748 -4.04844 -89.3589 -169.545 0.364473 97.5421 -25.9367 13.0967 -1.35313 60.3893 -0.915683 -1.73003 53.2942 0.438337 48.6917 167.238 -6.56134 83.9158 -21.7373 -15.7037 1.78913 69.4021 -5.98076 -1.01365 38.5602 -5.30621 7.06415 -0.480965 6.5506 -90.1764 13.7719 -1.03937 -0.2151 2.10137 -1.04782 -0.169158 -20.4365 -0.926664 -0.517546 -0.423814 -0.926662 -0.517543 98.1101 7.42732 -103.666 22.3073 84.7729 -45.946 -27.3198 -4.87608 -127.262 -6.80113 -0.471681 2.76873 -82.2753 -5.87568 83.0579 -39.2187 -73.4421 -75.3627 21.8822 4.16642 -117.341 -3.16321 -0.12859 0.784196 36.3492 3.46263 0.174608 -9.83072 3.23974 -0.183974 
148.444 14.0391 122.905 -9.41544 -3.86423 -89.5537 -169.655 0.679136 97.2867 -25.8266 12.7181 -1.40958 60.3786 -0.906622 -1.7331 53.1137 0.10412 49.3045 167.325 -5.88126 83.7581 -22.1569 -15.8659 1.71601 69.4054 -5.91866 -0.860351 36.8433 -4.73428 7.4283 -0.414664 6.49231 -90.0717 13.8897 -0.856885 -0.0290245 2.21905 -0.85733 0.00868911 -20.3182 -0.808558 -0.285239 -0.305529 -0.808544 -0.285249 97.6589 6.00019 -104.554 2.81588 84.7205 -26.8128 -25.655 -6.0142 -126.862 -6.21309 -0.474095 4.02994 -82.0982 -2.86752 82.5168 -41.4568 -72.5505 -74.5193 23.2418 3.33552 -117.946 -3.91809 -0.172346 1.58506 35.728 2.41843 -3.05982 -9.46302 3.51677 2.83311 
148.466 14.0433 122.939 -9.45748 -3.797 -89.7557 -169.768 0.513368 97.0228 -25.7401 12.3289 -1.39089 60.4105 -0.891445 -1.99518 53.1736 -0.0601807 50.1874 167.156 -5.72598 83.4706 -22.4108 -16.1251 1.72089 69.5509 -6.00792 -0.979909 38.2592 -5.22585 7.28917 -0.420359 6.48817 -89.9966 13.8983 -0.831655 0.118338 2.22761 -0.82567 0.154811 -20.3097 -0.828773 -0.137112 -0.29702 -0.828778 -0.13711 97.4041 5.21111 -105.018 -1.20338 84.8207 -23.0866 -25.7599 -5.91518 -126.979 -6.44345 -0.498086 4.13982 -82.1833 -1.82435 81.8481 -42.0633 -72.9433 -74.0395 23.613 3.30701 -118.047 -4.47529 -0.200801 1.64818 34.6095 1.79778 -4.60994 -8.70665 3.56027 3.75403 
148.435 14.0327 122.938 -9.64873 -3.77802 -89.764 -169.705 0.412679 97.0643 -26.0141 12.524 -1.42152 60.1026 -1.12966 -1.64564 52.9033 -0.358908 50.2725 167.085 -6.08838 83.4383 -22.064 -16.1616 1.70714 69.4686 -6.0201 -1.03049 38.3383 -5.22406 7.06861 -0.437817 6.52701 -89.9951 13.8208 -0.865565 0.12491 2.15013 -0.859225 0.162873 -20.3873 -0.863078 -0.141037 -0.374668 -0.863089 -0.141013 97.5154 6.19193 -105.418 -3.15974 85.756 -19.9945 -26.4438 -5.74298 -127.446 -6.10266 -0.475617 4.2469 -82.1945 -1.98031 81.8689 -41.894 -73.432 -74.3139 23.533 3.47037 -117.944 -4.40404 -0.195207 1.52879 35.4546 2.01405 -4.45669 -9.55835 3.7016 3.77701 
148.457 14.0521 122.933 -9.55602 -3.70155 -89.7328 -169.736 0.597194 97.0792 -26.0987 12.5201 -1.41644 60.2883 -1.0199 -1.73934 53.1017 -0.753968 52.5489 167.126 -6.00416 83.4956 -22.0129 -16.2484 1.69367 69.4287 -6.03204 -1.13593 38.6606 -5.27782 6.58081 -0.450376 6.47199 -89.9161 13.9313 -0.851673 0.282736 2.26053 -0.838417 0.319951 -20.2768 -0.897265 0.0136911 -0.264199 -0.897289 0.0136816 96.9421 3.8449 -105.852 -7.5668 84.79 -17.3202 -25.7948 -5.86122 -126.955 -6.48051 -0.49682 4.05858 -82.132 -1.09043 81.7042 -40.6719 -73.1943 -72.2819 23.5711 3.20361 -118.268 -4.182 -0.183306 1.49746 33.1096 1.2318 -6.38763 -7.46403 3.71101 5.27204 
148.485 14.0583 122.934 -9.614 -3.76314 -89.7278 -169.704 0.454369 97.1136 -25.889 12.6649 -1.40381 60.3682 -0.919119 -1.71131 53.3514 -0.990441 54.3764 167.13 -6.01882 83.5008 -22.1437 -16.1948 1.70505 69.6038 -6.1078 -1.03435 36.7079 -4.6485 7.18801 -0.483153 6.47902 -89.9057 13.9175 -0.911577 0.311454 2.24683 -0.896993 0.351259 -20.2909 -0.963053 0.0230556 -0.278241 -0.963046 0.0230548 96.8789 4.08745 -106.355 -9.79229 84.7699 -14.8264 -25.9607 -5.73215 -126.995 -5.96075 -0.447916 3.89365 -81.9017 -0.934854 82.4247 -41.2212 -72.5651 -72.5162 23.5538 3.08429 -118.374 -4.56036 -0.204105 1.57436 33.4768 1.39638 -6.45317 -7.80261 3.89959 5.28023 
148.508 14.0656 122.914 -9.51519 -3.76381 -89.6456 -169.675 0.515749 97.2076 -25.6614 12.6993 -1.40544 59.9309 -1.14478 -1.55069 54.1684 -0.420854 55.7202 167.205 -5.83667 83.6116 -22.3494 -16.0989 1.74029 69.6561 -6.12136 -1.13605 37.8547 -5.05281 7.10301 -0.503663 6.51605 -89.9323 13.8433 -0.965451 0.264343 2.17274 -0.952888 0.306582 -20.3653 -1.00027 -0.03807 -0.352651 -1.00025 -0.0380609 97.0461 5.1108 -106.562 -11.9258 85.78 -11.9943 -25.8564 -6.23025 -127.142 -6.40221 -0.491741 4.06936 -81.9112 -1.389 82.5798 -42.0804 -73.4532 -74.2272 23.2059 3.54644 -118.189 -4.1152 -0.180904 1.56822 35.2684 1.71557 -5.90226 -9.36656 4.02455 4.59047 
148.403 14.0425 122.944 -9.64231 -3.79601 -89.7611 -169.732 0.592435 97.0207 -26.5242 12.5911 -1.42425 60.8028 -0.73727 -1.19588 51.5648 -3.9475 57.4827 167.065 -6.23214 83.4567 -21.7393 -16.1231 1.68359 69.3124 -5.98091 -1.00241 39.1067 -5.48753 6.95146 -0.543709 6.47729 -89.8515 13.9217 -1.00524 0.432669 2.25103 -0.985177 0.476516 -20.2872 -1.08878 0.110534 -0.274523 -1.08879 0.110522 96.6575 3.0318 -106.372 -3.64479 84.7122 -21.7895 -26.2454 -5.54698 -126.865 -6.35926 -0.494075 4.19618 -81.9452 -0.393656 82.0435 -38.6944 -73.7997 -70.2123 23.2178 3.38226 -118.282 -4.53377 -0.203729 1.62606 32.9786 1.33272 -7.1504 -7.34584 4.13574 5.11228 
148.481 14.0481 122.93 -9.57107 -3.72175 -89.6674 -169.684 0.495002 97.1616 -25.8936 12.6364 -1.41905 60.1201 -1.07937 -1.62917 53.6818 -2.15571 59.828 167.18 -5.97851 83.5589 -22.1645 -16.1448 1.70654 69.5611 -6.07694 -1.09326 38.0398 -5.13234 7.18828 -0.562433 6.48987 -89.8618 13.8967 -1.04741 0.41731 2.22611 -1.02803 0.462985 -20.3124 -1.12441 0.083166 -0.299749 -1.1244 0.0831868 96.581 4.3468 -107.914 -20.9114 85.6684 -3.18557 -26.0243 -6.15342 -127.161 -6.33709 -0.489699 4.14479 -81.8668 -0.584574 82.3893 -39.509 -74.1108 -71.2627 22.8975 3.68895 -118.201 -3.98149 -0.174738 1.62118 33.3302 1.43581 -7.30981 -7.96043 4.27167 5.71774 
148.466 14.0243 122.917 -9.58137 -3.64821 -89.6605 -169.615 0.342641 97.2054 -25.5763 12.4766 -1.45096 60.0748 -1.06542 -1.75675 54.0388 -2.50095 62.3154 167.254 -5.86965 83.5655 -22.4062 -16.1242 1.6567 69.5305 -5.9752 -0.881862 37.0667 -4.79607 7.30012 -0.558018 6.54754 -89.8944 13.781 -1.05493 0.351291 2.11043 -1.03844 0.397384 -20.4282 -1.11174 0.0179833 -0.415502 -1.11173 0.0179733 96.8816 4.80145 -107.019 -8.88696 86.2585 -15.2995 -25.939 -6.38777 -127.013 -6.37445 -0.489495 4.08043 -81.568 -1.08531 83.6366 -42.6909 -73.3462 -74.8109 22.8263 3.70863 -118.304 -4.15835 -0.185528 1.72692 35.3922 1.82889 -6.56659 -9.55228 4.41541 4.84097 
148.466 14.0256 122.919 -9.52661 -3.71824 -89.6809 -169.655 0.506501 97.1627 -25.8356 12.6156 -1.46439 60.3329 -0.947404 -1.64512 53.6502 -3.74843 64.7596 167.201 -5.96299 83.5569 -22.1133 -16.0786 1.68865 69.4625 -5.9899 -0.941767 37.7776 -5.02498 7.10157 -0.575438 6.5282 -89.8684 13.82 -1.07669 0.40695 2.14939 -1.05772 0.453948 -20.3893 -1.14921 0.0645281 -0.376678 -1.1492 0.064513 96.6453 4.31287 -107.6 -17.8906 86.2241 -6.56594 -25.9055 -6.40872 -127.098 -6.50409 -0.501605 4.11485 -81.7373 -0.944989 82.996 -40.9931 -74.1448 -73.3575 22.7094 3.90759 -118.105 -4.0494 -0.180043 1.74588 34.8695 1.89037 -6.5104 -8.96689 4.47557 4.16425 
148.479 14.0511 122.902 -9.44297 -3.8126 -89.6185 -169.705 0.626097 97.2022 -25.8303 12.5795 -1.39732 60.2199 -1.02823 -1.76046 53.9422 -3.94567 66.5077 167.204 -5.94428 83.6824 -22.0979 -16.0189 1.77027 69.7708 -6.25552 -1.18852 38.3872 -5.17892 6.606 -0.590061 6.49755 -89.8687 13.8814 -1.10568 0.410994 2.21087 -1.08651 0.459286 -20.328 -1.17808 0.0596725 -0.315391 -1.17809 0.0596581 96.7285 3.76573 -106.722 -2.03829 85.2473 -23.0285 -26.2483 -5.88067 -126.799 -6.62336 -0.539628 4.65173 -81.6937 -1.1977 83.2459 -39.7273 -73.4435 -72.3723 23.1133 3.46819 -118.084 -3.88339 -0.171744 1.78345 34.5101 1.74996 -6.79047 -8.98636 4.41398 4.79981 
148.43 14.0058 122.934 -10.0193 -3.52586 -89.7709 -169.772 -0.223369 97.1863 -25.3298 12.9942 -1.21832 59.3835 -1.5511 -1.8658 55.2378 -2.80871 68.46 166.919 -6.58785 83.3938 -21.9271 -15.6703 1.79086 69.9811 -6.398 -0.989206 36.1839 -4.41565 6.91943 -0.550541 6.50062 -89.8297 13.8752 -1.00828 0.476078 2.20453 -0.986358 0.520011 -20.3337 -1.10476 0.15101 -0.321005 -1.10475 0.151006 96.2851 1.82366 -106.859 -6.34925 83.6005 -20.8983 -27.0344 -5.20809 -125.753 -7.0702 -0.584077 4.76289 -81.6792 -1.2393 83.3015 -37.3587 -71.764 -69.9233 24.6327 2.26803 -117.959 -3.76164 -0.166685 1.90655 32.9206 1.4863 -7.73211 -8.1843 4.45409 5.97404 
148.392 14.0556 123.062 -9.82119 -2.96618 -89.9364 -170.554 -0.118104 96.9986 -25.2211 16.7732 -0.404599 58.872 -1.87804 -2.88902 57.5492 -1.2603 74.2292 166.473 -6.26455 83.2167 -21.8613 -14.5242 2.14848 69.7668 -6.29574 -0.908094 36.0186 -4.38165 7.0923 -0.501783 6.49719 -89.8739 13.8815 -0.933182 0.377602 2.21086 -0.915651 0.418319 -20.327 -1.00352 0.0796691 -0.314309 -1.00353 0.0796614 97.38 3.67305 -103.822 24.4102 81.2819 -49.5077 -28.0323 -4.44342 -125.54 -7.55455 -0.620673 4.66898 -81.4067 -1.05183 84.1484 -38.4622 -71.0765 -70.5825 25.0025 2.05862 -117.842 -3.19695 -0.140771 2.55774 34.0799 1.75651 -6.11341 -8.96344 4.08651 5.01727 
